<svg width="70" height="70" viewBox="0 0 700 700" fill="none" xmlns="http://www.w3.org/2000/svg">
<path d="M326.77 559.84C312.645 558.211 302.196 556.625 292.711 554.672C183.891 532.254 97.711 446.082 75.301 337.252C70.7502 315.162 70.0432 307.447 70.0432 279.963C70.0432 252.479 70.7502 244.764 75.301 222.674C97.719 113.854 183.891 27.674 292.711 5.26403C314.801 0.713226 322.516 0.00622559 350 0.00622559C377.484 0.00622559 385.199 0.713256 407.289 5.26403C516.109 27.682 602.289 113.854 624.699 222.674C629.25 244.764 629.957 252.479 629.957 279.963C629.957 307.447 629.25 315.162 624.699 337.252C602.426 445.372 516.859 531.502 408.999 554.352C388.042 558.793 379.269 559.676 353.597 559.926C340.378 560.055 328.304 560.016 326.761 559.84L326.77 559.84ZM270.125 475.219C270.738 466.328 273.238 457.356 277.668 448.184C288.879 424.961 308.652 409.528 334.539 403.801C342.152 402.117 357.851 402.117 365.465 403.801C373.563 405.594 377.442 406.942 385.25 410.68C393.484 414.625 398.316 418.016 405.547 424.926C419.473 438.235 428.633 457.168 429.879 475.219L430.332 481.828H475.762L475.758 476.422C475.743 457.777 467.891 432.371 456.86 415.277C436.708 384.047 406.133 363.965 369.758 358.062C360.211 356.515 339.793 356.515 330.246 358.062C310.266 361.304 291.461 369.015 275.906 380.351C245.742 402.328 226.566 436.831 224.508 472.816L223.993 481.828H269.673L270.125 475.219ZM290.723 197.859V115.754H245.864V279.964H290.723V197.859ZM458.943 197.859V115.754H414.084V279.964H458.943V197.859Z" fill="black"/>
</svg>
