<svg width="100" height="100" viewBox="0 0 700 700" fill="none" xmlns="http://www.w3.org/2000/svg">
<path fill-rule="evenodd" clip-rule="evenodd" d="M581.12 186.71C549.222 86.53 416.85 4.81 314.06 43.31C304.025 47.0678 308.369 63.314 318.525 59.509C407.388 26.236 513.265 89.638 555.275 168.239C577.318 209.489 578.423 263.266 575.228 308.879C571.743 358.512 557.119 407.5 524.767 446.099C492.677 484.384 448.494 499.689 400.177 505.134C354.661 510.267 306.579 512.115 262.817 496.509C177.536 466.095 120.697 381.379 126.307 290.689C132.494 190.669 209.272 99.279 297.017 57.129C306.759 52.4454 298.247 37.961 288.54 42.625C200.048 85.129 123.72 175.275 110.96 274.655C98.7612 369.589 150.499 463.365 237.04 503.915C283.892 525.864 334.126 527.591 384.93 523.368C435.301 519.18 483.875 508.692 521.98 473.36C595.16 405.508 610.355 278.56 581.105 186.7" fill="black"/>
<path fill-rule="evenodd" clip-rule="evenodd" d="M247.11 194.7C243.891 191.481 238.446 191.481 235.231 194.7L232.481 197.45C229.274 200.653 229.274 206.118 232.481 209.329C235.704 212.548 241.145 212.548 244.36 209.329L247.11 206.579C250.317 203.368 250.317 197.911 247.11 194.7Z" fill="black"/>
<path fill-rule="evenodd" clip-rule="evenodd" d="M419.77 219.29C424.165 219.29 428.372 215.427 428.168 210.892C427.965 206.337 424.477 202.489 419.77 202.489H418.395C414.001 202.489 409.79 206.353 409.997 210.892C410.2 215.442 413.688 219.29 418.395 219.29H419.77Z" fill="black"/>
<path fill-rule="evenodd" clip-rule="evenodd" d="M337.92 291.61C308.178 287.915 277.139 301.153 259.397 325.356C238.1 354.415 238.151 392.192 240.717 426.506C241.518 437.225 258.322 437.307 257.514 426.506C253.756 376.233 263.19 305.546 329.866 307.736C393.647 309.841 414.428 383.427 404.487 435.256C402.46 445.818 418.651 450.346 420.69 439.721C432.292 379.225 408.592 300.391 337.92 291.611" fill="black"/>
</svg>
